HIERARCHY
ROOT joint_Root
{
	OFFSET 0.0 0.0 0.0
	CHANNELS 6 Xposition Yposition Zposition Zrotation Xrotation Yrotation 
	JOINT Hips
	{
		OFFSET -0.726466 93.3139 -2.00062
		CHANNELS 6 Xposition Yposition Zposition Zrotation Xrotation Yrotation 
		JOINT Spine
		{
			OFFSET 15.7357 0.0 0.0
			CHANNELS 6 Xposition Yposition Zposition Zrotation Xrotation Yrotation 
			JOINT Chest
			{
				OFFSET 8.98455 -0.406207 0.0
				CHANNELS 6 Xposition Yposition Zposition Zrotation Xrotation Yrotation 
				JOINT Neck
				{
					OFFSET 16.3773 0.0 0.0
					CHANNELS 6 Xposition Yposition Zposition Zrotation Xrotation Yrotation 
					JOINT Head
					{
						OFFSET 6.45672 0.0 0.0
						CHANNELS 6 Xposition Yposition Zposition Zrotation Xrotation Yrotation 
						End Site
						{
							OFFSET 0.0 0.0 0.0
						}
					}
				}
				JOINT Shoulder_L
				{
					OFFSET 12.9942 -0.242716 4.98039
					CHANNELS 6 Xposition Yposition Zposition Zrotation Xrotation Yrotation 
					JOINT UpperArm_L
					{
						OFFSET 5.34809 0.0 0.0
						CHANNELS 6 Xposition Yposition Zposition Zrotation Xrotation Yrotation 
						JOINT LowerArm_L
						{
							OFFSET 24.3286 1.87007e-05 0.0
							CHANNELS 6 Xposition Yposition Zposition Zrotation Xrotation Yrotation 
							JOINT Hand_L
							{
								OFFSET 22.2916 0.0 0.0
								CHANNELS 6 Xposition Yposition Zposition Zrotation Xrotation Yrotation 
								End Site
								{
									OFFSET 0.0 0.0 0.0
								}
							}
						}
					}
				}
				JOINT Shoulder_R
				{
					OFFSET 12.9945 -0.242716 -4.98039
					CHANNELS 6 Xposition Yposition Zposition Zrotation Xrotation Yrotation 
					JOINT UpperArm_R
					{
						OFFSET -5.34813 0.0 0.0
						CHANNELS 6 Xposition Yposition Zposition Zrotation Xrotation Yrotation 
						JOINT LowerArm_R
						{
							OFFSET -24.3289 0.000322201 0.0
							CHANNELS 6 Xposition Yposition Zposition Zrotation Xrotation Yrotation 
							JOINT Hand_R
							{
								OFFSET -22.2915 -0.000108084 0.0
								CHANNELS 6 Xposition Yposition Zposition Zrotation Xrotation Yrotation 
								End Site
								{
									OFFSET 0.0 0.0 0.0
								}
							}
						}
					}
				}
			}
		}
		JOINT UpperLeg_L
		{
			OFFSET -2.19248 -6.46944 0.0
			CHANNELS 6 Xposition Yposition Zposition Zrotation Xrotation Yrotation 
			JOINT LowerLeg_L
			{
				OFFSET 39.0811 0.0 -1.23785e-05
				CHANNELS 6 Xposition Yposition Zposition Zrotation Xrotation Yrotation 
				JOINT Foot_L
				{
					OFFSET 40.9854 0.0 -1.26872e-05
					CHANNELS 6 Xposition Yposition Zposition Zrotation Xrotation Yrotation 
					JOINT Toes_L
					{
						OFFSET 11.7543 0.0 0.0
						CHANNELS 6 Xposition Yposition Zposition Zrotation Xrotation Yrotation 
						End Site
						{
							OFFSET 0.0 0.0 0.0
						}
					}
				}
			}
		}
		JOINT UpperLeg_R
		{
			OFFSET -2.19251 6.46944 0.0
			CHANNELS 6 Xposition Yposition Zposition Zrotation Xrotation Yrotation 
			JOINT LowerLeg_R
			{
				OFFSET -39.0811 -0.00228153 -0.0401928
				CHANNELS 6 Xposition Yposition Zposition Zrotation Xrotation Yrotation 
				JOINT Foot_R
				{
					OFFSET -40.9854 0.0 0.0
					CHANNELS 6 Xposition Yposition Zposition Zrotation Xrotation Yrotation 
					JOINT Toes_R
					{
						OFFSET -11.7543 0.0 0.0
						CHANNELS 6 Xposition Yposition Zposition Zrotation Xrotation Yrotation 
						End Site
						{
							OFFSET 0.0 0.0 0.0
						}
					}
				}
			}
		}
	}
}
MOTION
Frames:	6
Frame Time:	0.0333333
0.000000 0.000000 0.000000 0.000000 0.000000 -0.000000 95.294500 90.309900 171.796000 -79.384900 35.446900 178.546000 15.735700 0.000005 -0.000001 74.329000 82.594900 -72.156900 8.984550 -0.406207 -0.000000 6.585900 -4.010460 4.571580 16.377300 -0.000001 -0.000001 4.091040 8.815640 -2.566090 6.456720 -0.000001 -0.000000 2.650600 17.540200 -4.669090 12.994200 -0.242716 4.980390 -89.153900 -2.536070 -71.542900 5.348090 -0.000007 -0.000001 -58.480200 44.043600 -36.265700 24.328600 0.000019 0.000005 1.474980 1.425490 -45.987700 22.291600 -0.000001 0.000005 10.122300 5.560980 -9.235350 12.994500 -0.242716 -4.980390 88.705500 3.596450 -70.189900 -5.348130 -0.000001 -0.000004 -70.613500 31.423600 -1.104730 -24.328900 0.000322 -0.000009 2.987680 13.271800 -12.813700 -22.291500 -0.000108 -0.000004 5.156680 5.375510 -2.157230 -2.192480 -6.469440 -0.000000 176.981000 2.788980 1.080060 39.081100 -0.000007 -0.000012 -0.128452 0.259391 26.345100 40.985400 -0.000006 -0.000013 13.352500 0.195535 -71.957000 11.754300 -0.000000 0.000003 -0.000271 -0.004449 -16.758100 -2.192510 6.469440 -0.000001 177.880000 -1.453980 161.743000 -39.081100 -0.002282 -0.040193 -0.004365 0.008756 41.109700 -40.985400 0.000008 0.000006 4.496240 -10.592000 -52.117800 -11.754300 -0.000006 -0.000006 -0.024106 -0.189054 -24.305800
0.000000 0.000000 0.000000 0.000000 0.000000 -0.000000 97.359600 90.204600 170.146000 -80.111100 32.682500 178.281000 15.735700 0.000005 -0.000001 72.537400 82.779300 -70.335700 8.984550 -0.406207 -0.000000 6.111100 -4.353600 4.632600 16.377300 -0.000001 -0.000001 3.805780 8.245530 -2.082970 6.456720 -0.000001 -0.000000 2.212800 17.004800 -4.403170 12.994200 -0.242716 4.980390 -89.025900 -2.969250 -71.828200 5.348090 -0.000007 -0.000001 -54.988900 44.918800 -40.420600 24.328600 0.000019 0.000005 1.548900 1.369890 -48.515300 22.291600 -0.000001 0.000005 10.250600 5.567170 -9.543590 12.994500 -0.242716 -4.980390 88.689100 3.577870 -69.861900 -5.348130 -0.000001 -0.000004 -71.343300 30.490700 -0.006966 -24.328900 0.000322 -0.000009 2.876890 14.437000 -11.400500 -22.291500 -0.000108 -0.000004 5.865780 5.369230 -1.963610 -2.192480 -6.469440 -0.000000 177.236000 4.414510 2.847030 39.081100 -0.000007 -0.000012 -0.145335 0.312050 24.973600 40.985400 -0.000006 -0.000013 13.306800 1.377730 -73.216300 11.754300 -0.000000 0.000003 -0.000000 -0.000001 -16.577500 -2.192510 6.469440 -0.000001 177.142000 -1.088680 160.992000 -39.081100 -0.002282 -0.040193 0.013253 -0.016808 30.630600 -40.985400 0.000008 0.000006 3.697040 -8.271210 -53.655900 -11.754300 -0.000006 -0.000006 -0.023207 -0.184442 -24.115300
0.000000 0.000000 0.000000 0.000000 0.000000 -0.000000 99.450600 89.902600 168.367000 -81.065400 30.695900 178.121000 15.735700 0.000005 -0.000001 71.528900 82.993300 -69.426300 8.984550 -0.406207 -0.000000 5.624420 -4.468480 4.421740 16.377300 -0.000001 -0.000001 3.504720 7.790840 -1.717340 6.456720 -0.000001 -0.000000 1.823810 16.561700 -4.075530 12.994200 -0.242716 4.980390 -88.968900 -3.171460 -71.979100 5.348090 -0.000007 -0.000001 -52.312500 45.273800 -43.117600 24.328600 0.000019 0.000005 1.600880 1.313440 -50.642700 22.291600 -0.000001 0.000005 10.320300 5.571210 -9.750490 12.994500 -0.242716 -4.980390 88.662200 3.628920 -69.748000 -5.348130 -0.000001 -0.000004 -71.704900 29.590000 0.405177 -24.328900 0.000322 -0.000009 2.617230 14.916600 -10.073700 -22.291500 -0.000108 -0.000004 6.353560 5.360790 -1.703930 -2.192480 -6.469440 -0.000000 177.544000 4.496480 4.610270 39.081100 -0.000007 -0.000012 -0.170420 0.386879 23.773700 40.985400 -0.000006 -0.000013 13.460500 3.269500 -74.892300 11.754300 -0.000000 0.000003 -0.000000 -0.000002 -16.577500 -2.192510 6.469440 -0.000001 177.561000 4.206980 160.446000 -39.081100 -0.002282 -0.040193 0.001575 0.004754 20.170300 -40.985400 0.000008 0.000006 -0.504295 -1.840700 -55.329000 -11.754300 -0.000006 -0.000006 -0.022565 -0.181104 -23.977500
0.000000 0.000000 0.000000 0.000000 0.000000 -0.000000 101.701000 89.488000 166.405000 -81.904800 29.297300 178.098000 15.735700 0.000005 -0.000001 71.534600 83.154900 -69.516900 8.984550 -0.406207 -0.000000 5.311700 -4.369810 4.235030 16.377300 -0.000001 -0.000001 3.239950 7.496970 -1.456460 6.456720 -0.000001 -0.000000 1.495390 16.135200 -3.947940 12.994200 -0.242716 4.980390 -89.027400 -3.023650 -72.158700 5.348090 -0.000007 -0.000001 -50.722700 45.385500 -44.150800 24.328600 0.000019 0.000005 1.156840 0.904205 -51.992000 22.291600 -0.000001 0.000005 10.669600 5.578160 -10.113700 12.994500 -0.242716 -4.980390 88.619500 3.742000 -69.733200 -5.348130 -0.000001 -0.000004 -71.730800 28.561200 0.036082 -24.328900 0.000322 -0.000009 2.320260 15.372500 -8.694030 -22.291500 -0.000108 -0.000004 7.148780 5.356700 -1.579490 -2.192480 -6.469440 -0.000000 177.792000 3.344080 7.291950 39.081100 -0.000007 -0.000012 -0.058291 0.145680 21.807800 40.985400 -0.000006 -0.000013 16.805900 4.642910 -77.046200 11.754300 -0.000000 0.000003 -0.000292 -0.004772 -16.771300 -2.192510 6.469440 -0.000001 -179.653000 13.832600 160.092000 -39.081100 -0.002282 -0.040193 -0.015289 0.099669 10.585600 -40.985400 0.000008 0.000006 -9.144120 8.369900 -54.608300 -11.754300 -0.000006 -0.000006 -0.024500 -0.191048 -24.388200
0.000000 0.000000 0.000000 0.000000 0.000000 -0.000000 104.167000 88.914600 164.133000 -82.936900 28.082600 178.459000 15.735700 0.000005 -0.000001 71.321700 83.224700 -69.491200 8.984550 -0.406207 -0.000000 5.155440 -4.372290 3.855170 16.377300 -0.000001 -0.000001 3.020530 7.287850 -1.176030 6.456720 -0.000001 -0.000000 1.241530 15.753500 -3.783400 12.994200 -0.242716 4.980390 -89.037200 -3.006640 -72.234600 5.348090 -0.000007 -0.000001 -50.830600 45.419400 -43.438700 24.328600 0.000019 0.000005 1.200930 0.936507 -52.056200 22.291600 -0.000001 0.000005 10.950800 5.584030 -10.430500 12.994500 -0.242716 -4.980390 88.549400 3.950820 -69.819700 -5.348130 -0.000001 -0.000004 -71.511000 27.795400 -0.928766 -24.328900 0.000322 -0.000009 2.017720 15.401900 -7.559910 -22.291500 -0.000108 -0.000004 7.884690 5.346410 -1.270050 -2.192480 -6.469440 -0.000000 178.102000 2.623200 8.835270 39.081100 -0.000007 -0.000012 -0.016227 0.039037 22.572100 40.985400 -0.000006 -0.000013 17.375700 6.427030 -77.922600 11.754300 -0.000000 0.000003 -0.603725 -0.737153 -18.400100 -2.192510 6.469440 -0.000001 -178.052000 17.050200 158.858000 -39.081100 -0.002282 -0.040193 -0.015162 0.153579 6.871050 -40.985400 0.000008 0.000006 -13.750400 13.020100 -54.920000 -11.754300 -0.000006 -0.000006 -0.025657 -0.196820 -24.626800
0.000000 0.000000 0.000000 0.000000 0.000000 -0.000000 106.939000 88.338900 161.513000 -83.634600 26.761200 178.750000 15.735700 0.000005 -0.000001 70.534700 83.244000 -68.796300 8.984550 -0.406207 -0.000000 5.057550 -4.534640 3.674670 16.377300 -0.000001 -0.000001 2.863130 7.111180 -0.890521 6.456720 -0.000001 -0.000000 1.066220 15.363600 -3.615480 12.994200 -0.242716 4.980390 -89.035400 -3.023610 -72.297300 5.348090 -0.000007 -0.000001 -52.552800 45.386600 -41.088900 24.328600 0.000019 0.000005 1.068270 0.872880 -50.747700 22.291600 -0.000001 0.000005 10.988800 5.586140 -10.547000 12.994500 -0.242716 -4.980390 88.458100 4.210240 -69.865300 -5.348130 -0.000001 -0.000004 -71.099500 27.494900 -2.473980 -24.328900 0.000322 -0.000009 1.787250 15.126400 -6.822820 -22.291500 -0.000108 -0.000004 8.659770 5.335990 -0.961272 -2.192480 -6.469440 -0.000000 178.586000 2.925580 10.172800 39.081100 -0.000007 -0.000012 0.014091 -0.031483 24.111900 40.985400 -0.000006 -0.000013 17.094000 7.691260 -77.132900 11.754300 -0.000000 0.000003 -1.649770 -1.870930 -21.910700 -2.192510 6.469440 -0.000001 -176.245000 17.206600 155.108000 -39.081100 -0.002282 -0.040193 -0.037764 0.183740 12.608400 -40.985400 0.000008 0.000006 -8.034740 10.339200 -58.468800 -11.754300 -0.000006 -0.000006 -0.024838 -0.192747 -24.458400
